<?xml version='1.0' encoding='utf-8'?>
<svg xmlns="http://www.w3.org/2000/svg" width="1000" height="380" viewBox="0 0 1000 380">
  <rect x="0" y="0" width="100%" height="100%" fill="#ffffff" stroke="none" stroke-width="0" />
  <text x="500.0" y="18" font-family="Verdana" font-size="16" style="text-anchor: middle;">Altimetria — Ruta de la Foz de Lumbier, Ermita de Piedra y Arcos de Piedra</text>
  <line x1="70" y1="330" x2="970" y2="330" stroke="#333" stroke-width="1.5" />
  <line x1="70" y1="30" x2="70" y2="330" stroke="#333" stroke-width="1.5" />
  <line x1="70.0" y1="30" x2="70.0" y2="330" stroke="#e6e6e6" stroke-width="1" />
  <text x="70.0" y="348" font-family="Verdana" font-size="11" style="text-anchor: middle; fill: #444;">0.0</text>
  <line x1="109.147455415398" y1="30" x2="109.147455415398" y2="330" stroke="#e6e6e6" stroke-width="1" />
  <text x="109.147455415398" y="348" font-family="Verdana" font-size="11" style="text-anchor: middle; fill: #444;">0.5</text>
  <line x1="148.294910830796" y1="30" x2="148.294910830796" y2="330" stroke="#e6e6e6" stroke-width="1" />
  <text x="148.294910830796" y="348" font-family="Verdana" font-size="11" style="text-anchor: middle; fill: #444;">1.0</text>
  <line x1="187.442366246194" y1="30" x2="187.442366246194" y2="330" stroke="#e6e6e6" stroke-width="1" />
  <text x="187.442366246194" y="348" font-family="Verdana" font-size="11" style="text-anchor: middle; fill: #444;">1.5</text>
  <line x1="226.589821661592" y1="30" x2="226.589821661592" y2="330" stroke="#e6e6e6" stroke-width="1" />
  <text x="226.589821661592" y="348" font-family="Verdana" font-size="11" style="text-anchor: middle; fill: #444;">2.0</text>
  <line x1="265.73727707699" y1="30" x2="265.73727707699" y2="330" stroke="#e6e6e6" stroke-width="1" />
  <text x="265.73727707699" y="348" font-family="Verdana" font-size="11" style="text-anchor: middle; fill: #444;">2.5</text>
  <line x1="304.884732492388" y1="30" x2="304.884732492388" y2="330" stroke="#e6e6e6" stroke-width="1" />
  <text x="304.884732492388" y="348" font-family="Verdana" font-size="11" style="text-anchor: middle; fill: #444;">3.0</text>
  <line x1="344.032187907786" y1="30" x2="344.032187907786" y2="330" stroke="#e6e6e6" stroke-width="1" />
  <text x="344.032187907786" y="348" font-family="Verdana" font-size="11" style="text-anchor: middle; fill: #444;">3.5</text>
  <line x1="383.179643323184" y1="30" x2="383.179643323184" y2="330" stroke="#e6e6e6" stroke-width="1" />
  <text x="383.179643323184" y="348" font-family="Verdana" font-size="11" style="text-anchor: middle; fill: #444;">4.0</text>
  <line x1="422.327098738582" y1="30" x2="422.327098738582" y2="330" stroke="#e6e6e6" stroke-width="1" />
  <text x="422.327098738582" y="348" font-family="Verdana" font-size="11" style="text-anchor: middle; fill: #444;">4.5</text>
  <line x1="461.47455415397997" y1="30" x2="461.47455415397997" y2="330" stroke="#e6e6e6" stroke-width="1" />
  <text x="461.47455415397997" y="348" font-family="Verdana" font-size="11" style="text-anchor: middle; fill: #444;">5.0</text>
  <line x1="500.622009569378" y1="30" x2="500.622009569378" y2="330" stroke="#e6e6e6" stroke-width="1" />
  <text x="500.622009569378" y="348" font-family="Verdana" font-size="11" style="text-anchor: middle; fill: #444;">5.5</text>
  <line x1="539.769464984776" y1="30" x2="539.769464984776" y2="330" stroke="#e6e6e6" stroke-width="1" />
  <text x="539.769464984776" y="348" font-family="Verdana" font-size="11" style="text-anchor: middle; fill: #444;">6.0</text>
  <line x1="578.9169204001739" y1="30" x2="578.9169204001739" y2="330" stroke="#e6e6e6" stroke-width="1" />
  <text x="578.9169204001739" y="348" font-family="Verdana" font-size="11" style="text-anchor: middle; fill: #444;">6.5</text>
  <line x1="618.064375815572" y1="30" x2="618.064375815572" y2="330" stroke="#e6e6e6" stroke-width="1" />
  <text x="618.064375815572" y="348" font-family="Verdana" font-size="11" style="text-anchor: middle; fill: #444;">7.0</text>
  <line x1="657.21183123097" y1="30" x2="657.21183123097" y2="330" stroke="#e6e6e6" stroke-width="1" />
  <text x="657.21183123097" y="348" font-family="Verdana" font-size="11" style="text-anchor: middle; fill: #444;">7.5</text>
  <line x1="696.359286646368" y1="30" x2="696.359286646368" y2="330" stroke="#e6e6e6" stroke-width="1" />
  <text x="696.359286646368" y="348" font-family="Verdana" font-size="11" style="text-anchor: middle; fill: #444;">8.0</text>
  <line x1="735.506742061766" y1="30" x2="735.506742061766" y2="330" stroke="#e6e6e6" stroke-width="1" />
  <text x="735.506742061766" y="348" font-family="Verdana" font-size="11" style="text-anchor: middle; fill: #444;">8.5</text>
  <line x1="774.654197477164" y1="30" x2="774.654197477164" y2="330" stroke="#e6e6e6" stroke-width="1" />
  <text x="774.654197477164" y="348" font-family="Verdana" font-size="11" style="text-anchor: middle; fill: #444;">9.0</text>
  <line x1="813.8016528925621" y1="30" x2="813.8016528925621" y2="330" stroke="#e6e6e6" stroke-width="1" />
  <text x="813.8016528925621" y="348" font-family="Verdana" font-size="11" style="text-anchor: middle; fill: #444;">9.5</text>
  <line x1="852.9491083079599" y1="30" x2="852.9491083079599" y2="330" stroke="#e6e6e6" stroke-width="1" />
  <text x="852.9491083079599" y="348" font-family="Verdana" font-size="11" style="text-anchor: middle; fill: #444;">10.0</text>
  <line x1="892.096563723358" y1="30" x2="892.096563723358" y2="330" stroke="#e6e6e6" stroke-width="1" />
  <text x="892.096563723358" y="348" font-family="Verdana" font-size="11" style="text-anchor: middle; fill: #444;">10.5</text>
  <line x1="931.244019138756" y1="30" x2="931.244019138756" y2="330" stroke="#e6e6e6" stroke-width="1" />
  <text x="931.244019138756" y="348" font-family="Verdana" font-size="11" style="text-anchor: middle; fill: #444;">11.0</text>
  <line x1="970.3914745541539" y1="30" x2="970.3914745541539" y2="330" stroke="#e6e6e6" stroke-width="1" />
  <text x="970.3914745541539" y="348" font-family="Verdana" font-size="11" style="text-anchor: middle; fill: #444;">11.5</text>
  <text x="520.0" y="368" font-family="Verdana" font-size="12" style="text-anchor: middle;">Distancia (km)</text>
  <line x1="70" y1="338.9703237410072" x2="970" y2="338.9703237410072" stroke="#efefef" stroke-width="1" />
  <text x="62" y="342.9703237410072" font-family="Verdana" font-size="11" style="text-anchor: end; fill: #444;">400</text>
  <line x1="70" y1="271.5242805755396" x2="970" y2="271.5242805755396" stroke="#efefef" stroke-width="1" />
  <text x="62" y="275.5242805755396" font-family="Verdana" font-size="11" style="text-anchor: end; fill: #444;">500</text>
  <line x1="70" y1="204.07823741007195" x2="970" y2="204.07823741007195" stroke="#efefef" stroke-width="1" />
  <text x="62" y="208.07823741007195" font-family="Verdana" font-size="11" style="text-anchor: end; fill: #444;">600</text>
  <line x1="70" y1="136.63219424460434" x2="970" y2="136.63219424460434" stroke="#efefef" stroke-width="1" />
  <text x="62" y="140.63219424460434" font-family="Verdana" font-size="11" style="text-anchor: end; fill: #444;">700</text>
  <line x1="70" y1="69.18615107913666" x2="970" y2="69.18615107913666" stroke="#efefef" stroke-width="1" />
  <text x="62" y="73.18615107913666" font-family="Verdana" font-size="11" style="text-anchor: end; fill: #444;">800</text>
  <text x="16" y="180.0" font-family="Verdana" font-size="12" style="text-anchor: middle;" transform="rotate(-90,16,180.0)">Altitud (m)</text>
  <polyline points="70.00,330.00 76.03,319.61 89.10,320.62 97.32,321.91 112.36,324.20 120.58,322.18 138.74,312.87 154.64,315.84 162.86,308.75 174.99,298.57 183.84,288.39 187.99,284.41 199.73,266.74 210.54,256.55 214.38,249.20 228.23,227.21 249.22,195.18 258.06,180.00 265.66,166.04 284.92,128.94 292.67,120.04 309.82,90.97 337.06,66.22 362.90,39.24 368.62,41.33 374.41,57.11 391.09,39.85 393.75,44.91 400.64,68.58 401.89,56.10 404.01,69.19 409.10,72.56 417.79,56.64 422.01,35.13 426.95,30.00 430.55,41.94 432.90,36.61 438.85,54.21 453.10,97.92 472.98,144.19 486.61,163.61 516.59,186.68 531.39,200.91 550.03,213.25 559.73,218.51 570.85,227.08 575.94,229.78 587.45,245.83 608.67,265.79 613.52,272.00 622.37,296.14 625.35,298.57 631.06,318.06 653.69,328.38 710.84,318.74 717.26,272.40 729.56,321.57 745.69,321.84 755.71,304.78 761.89,324.33 785.38,327.91 799.16,330.00 802.76,328.45 807.22,324.81 814.35,312.26 825.39,321.91 831.10,321.10 868.06,320.69 884.74,321.43 918.01,320.76 938.21,320.69 958.80,319.21 970.00,318.67 970.00,330.00 70.00,330.00" fill="#cfe8ff" stroke="none" stroke-width="0" />
  <polyline points="76.03,319.61 89.10,320.62 97.32,321.91 112.36,324.20 120.58,322.18 138.74,312.87 154.64,315.84 162.86,308.75 174.99,298.57 183.84,288.39 187.99,284.41 199.73,266.74 210.54,256.55 214.38,249.20 228.23,227.21 249.22,195.18 258.06,180.00 265.66,166.04 284.92,128.94 292.67,120.04 309.82,90.97 337.06,66.22 362.90,39.24 368.62,41.33 374.41,57.11 391.09,39.85 393.75,44.91 400.64,68.58 401.89,56.10 404.01,69.19 409.10,72.56 417.79,56.64 422.01,35.13 426.95,30.00 430.55,41.94 432.90,36.61 438.85,54.21 453.10,97.92 472.98,144.19 486.61,163.61 516.59,186.68 531.39,200.91 550.03,213.25 559.73,218.51 570.85,227.08 575.94,229.78 587.45,245.83 608.67,265.79 613.52,272.00 622.37,296.14 625.35,298.57 631.06,318.06 653.69,328.38 710.84,318.74 717.26,272.40 729.56,321.57 745.69,321.84 755.71,304.78 761.89,324.33 785.38,327.91 799.16,330.00 802.76,328.45 807.22,324.81 814.35,312.26 825.39,321.91 831.10,321.10 868.06,320.69 884.74,321.43 918.01,320.76 938.21,320.69 958.80,319.21 970.00,318.67" fill="none" stroke="#0066ff" stroke-width="2.5" />
  <circle cx="76.03" cy="319.61" r="3" fill="#888888" stroke="none" stroke-width="0" />
  <circle cx="89.10" cy="320.62" r="3" fill="#888888" stroke="none" stroke-width="0" />
  <circle cx="97.32" cy="321.91" r="3" fill="#888888" stroke="none" stroke-width="0" />
  <circle cx="112.36" cy="324.20" r="3" fill="#888888" stroke="none" stroke-width="0" />
  <circle cx="120.58" cy="322.18" r="3" fill="#888888" stroke="none" stroke-width="0" />
  <circle cx="138.74" cy="312.87" r="3" fill="#888888" stroke="none" stroke-width="0" />
  <circle cx="154.64" cy="315.84" r="3" fill="#888888" stroke="none" stroke-width="0" />
  <circle cx="162.86" cy="308.75" r="3" fill="#888888" stroke="none" stroke-width="0" />
  <circle cx="174.99" cy="298.57" r="3" fill="#888888" stroke="none" stroke-width="0" />
  <circle cx="183.84" cy="288.39" r="3" fill="#888888" stroke="none" stroke-width="0" />
  <circle cx="187.99" cy="284.41" r="3" fill="#888888" stroke="none" stroke-width="0" />
  <circle cx="199.73" cy="266.74" r="3" fill="#888888" stroke="none" stroke-width="0" />
  <circle cx="210.54" cy="256.55" r="3" fill="#888888" stroke="none" stroke-width="0" />
  <circle cx="214.38" cy="249.20" r="3" fill="#888888" stroke="none" stroke-width="0" />
  <circle cx="228.23" cy="227.21" r="3" fill="#888888" stroke="none" stroke-width="0" />
  <circle cx="249.22" cy="195.18" r="3" fill="#888888" stroke="none" stroke-width="0" />
  <circle cx="258.06" cy="180.00" r="3" fill="#888888" stroke="none" stroke-width="0" />
  <circle cx="265.66" cy="166.04" r="3" fill="#888888" stroke="none" stroke-width="0" />
  <circle cx="284.92" cy="128.94" r="3" fill="#888888" stroke="none" stroke-width="0" />
  <circle cx="292.67" cy="120.04" r="3" fill="#888888" stroke="none" stroke-width="0" />
  <circle cx="309.82" cy="90.97" r="3" fill="#888888" stroke="none" stroke-width="0" />
  <circle cx="337.06" cy="66.22" r="3" fill="#888888" stroke="none" stroke-width="0" />
  <circle cx="362.90" cy="39.24" r="3" fill="#888888" stroke="none" stroke-width="0" />
  <circle cx="368.62" cy="41.33" r="3" fill="#888888" stroke="none" stroke-width="0" />
  <circle cx="374.41" cy="57.11" r="3" fill="#888888" stroke="none" stroke-width="0" />
  <circle cx="391.09" cy="39.85" r="3" fill="#888888" stroke="none" stroke-width="0" />
  <circle cx="393.75" cy="44.91" r="3" fill="#888888" stroke="none" stroke-width="0" />
  <circle cx="400.64" cy="68.58" r="3" fill="#888888" stroke="none" stroke-width="0" />
  <circle cx="401.89" cy="56.10" r="3" fill="#888888" stroke="none" stroke-width="0" />
  <circle cx="404.01" cy="69.19" r="3" fill="#888888" stroke="none" stroke-width="0" />
  <circle cx="409.10" cy="72.56" r="3" fill="#888888" stroke="none" stroke-width="0" />
  <circle cx="417.79" cy="56.64" r="3" fill="#888888" stroke="none" stroke-width="0" />
  <circle cx="422.01" cy="35.13" r="3" fill="#888888" stroke="none" stroke-width="0" />
  <circle cx="426.95" cy="30.00" r="3" fill="#888888" stroke="none" stroke-width="0" />
  <circle cx="430.55" cy="41.94" r="3" fill="#888888" stroke="none" stroke-width="0" />
  <circle cx="432.90" cy="36.61" r="3" fill="#888888" stroke="none" stroke-width="0" />
  <circle cx="438.85" cy="54.21" r="3" fill="#888888" stroke="none" stroke-width="0" />
  <circle cx="453.10" cy="97.92" r="3" fill="#888888" stroke="none" stroke-width="0" />
  <circle cx="472.98" cy="144.19" r="3" fill="#888888" stroke="none" stroke-width="0" />
  <circle cx="486.61" cy="163.61" r="3" fill="#888888" stroke="none" stroke-width="0" />
  <circle cx="516.59" cy="186.68" r="3" fill="#888888" stroke="none" stroke-width="0" />
  <circle cx="531.39" cy="200.91" r="3" fill="#888888" stroke="none" stroke-width="0" />
  <circle cx="550.03" cy="213.25" r="3" fill="#888888" stroke="none" stroke-width="0" />
  <circle cx="559.73" cy="218.51" r="3" fill="#888888" stroke="none" stroke-width="0" />
  <circle cx="570.85" cy="227.08" r="3" fill="#888888" stroke="none" stroke-width="0" />
  <circle cx="575.94" cy="229.78" r="3" fill="#888888" stroke="none" stroke-width="0" />
  <circle cx="587.45" cy="245.83" r="3" fill="#888888" stroke="none" stroke-width="0" />
  <circle cx="608.67" cy="265.79" r="3" fill="#888888" stroke="none" stroke-width="0" />
  <circle cx="613.52" cy="272.00" r="3" fill="#888888" stroke="none" stroke-width="0" />
  <circle cx="622.37" cy="296.14" r="3" fill="#888888" stroke="none" stroke-width="0" />
  <circle cx="625.35" cy="298.57" r="3" fill="#888888" stroke="none" stroke-width="0" />
  <circle cx="631.06" cy="318.06" r="3" fill="#888888" stroke="none" stroke-width="0" />
  <circle cx="653.69" cy="328.38" r="3" fill="#888888" stroke="none" stroke-width="0" />
  <circle cx="710.84" cy="318.74" r="3" fill="#888888" stroke="none" stroke-width="0" />
  <circle cx="717.26" cy="272.40" r="3" fill="#888888" stroke="none" stroke-width="0" />
  <circle cx="729.56" cy="321.57" r="3" fill="#888888" stroke="none" stroke-width="0" />
  <circle cx="745.69" cy="321.84" r="3" fill="#888888" stroke="none" stroke-width="0" />
  <circle cx="755.71" cy="304.78" r="3" fill="#888888" stroke="none" stroke-width="0" />
  <circle cx="761.89" cy="324.33" r="3" fill="#888888" stroke="none" stroke-width="0" />
  <circle cx="785.38" cy="327.91" r="3" fill="#888888" stroke="none" stroke-width="0" />
  <circle cx="799.16" cy="330.00" r="3" fill="#888888" stroke="none" stroke-width="0" />
  <circle cx="802.76" cy="328.45" r="3" fill="#888888" stroke="none" stroke-width="0" />
  <circle cx="807.22" cy="324.81" r="3" fill="#888888" stroke="none" stroke-width="0" />
  <circle cx="814.35" cy="312.26" r="3" fill="#888888" stroke="none" stroke-width="0" />
  <circle cx="825.39" cy="321.91" r="3" fill="#888888" stroke="none" stroke-width="0" />
  <circle cx="831.10" cy="321.10" r="3" fill="#888888" stroke="none" stroke-width="0" />
  <circle cx="868.06" cy="320.69" r="3" fill="#888888" stroke="none" stroke-width="0" />
  <circle cx="884.74" cy="321.43" r="3" fill="#888888" stroke="none" stroke-width="0" />
  <circle cx="918.01" cy="320.76" r="3" fill="#888888" stroke="none" stroke-width="0" />
  <circle cx="938.21" cy="320.69" r="3" fill="#888888" stroke="none" stroke-width="0" />
  <circle cx="958.80" cy="319.21" r="3" fill="#888888" stroke="none" stroke-width="0" />
  <circle cx="970.00" cy="318.67" r="3" fill="#888888" stroke="none" stroke-width="0" />
  <circle cx="89.10" cy="320.62" r="5" fill="#ffffff" stroke="#0044cc" stroke-width="1.5" />
  <text x="95.1" y="314.6" font-family="Verdana" font-size="9" style="fill: #222;">Puente de los hierros</text>
  <circle cx="214.38" cy="249.20" r="5" fill="#ffffff" stroke="#0044cc" stroke-width="1.5" />
  <text x="214.4" y="243.2" font-family="Verdana" font-size="9" style="fill: #222;" transform="rotate(-90,214.4,249.2)">Sendero de Cruces V - VIII</text>
  <circle cx="292.67" cy="120.04" r="5" fill="#ffffff" stroke="#0044cc" stroke-width="1.5" />
  <text x="298.7" y="114.0" font-family="Verdana" font-size="9" style="fill: #222;">Ermita de la Trinidad</text>
  <circle cx="400.64" cy="68.58" r="5" fill="#ffffff" stroke="#0044cc" stroke-width="1.5" />
  <text x="400.6" y="62.6" font-family="Verdana" font-size="9" style="fill: #222;" transform="rotate(-90,400.6,68.6)">Arco Cara de Elefante</text>
  <circle cx="438.85" cy="54.21" r="5" fill="#ffffff" stroke="#0044cc" stroke-width="1.5" />
  <text x="444.8" y="48.2" font-family="Verdana" font-size="9" style="fill: #222;">Arco de la Piedra</text>
  <circle cx="802.76" cy="328.45" r="5" fill="#ffffff" stroke="#0044cc" stroke-width="1.5" />
  <text x="802.8" y="322.4" font-family="Verdana" font-size="9" style="fill: #222;" transform="rotate(-90,802.8,328.4)">Foz de Lumbier</text>
  <text x="970" y="36" font-family="Verdana" font-size="12" style="text-anchor: end;">Longitud: 11.495 km</text>
  <text x="970" y="54" font-family="Verdana" font-size="12" style="text-anchor: end;">Altitud: 413–858 m</text>
</svg>