<?xml version='1.0' encoding='utf-8'?>
<svg xmlns="http://www.w3.org/2000/svg" width="1000" height="380" viewBox="0 0 1000 380">
  <rect x="0" y="0" width="100%" height="100%" fill="#ffffff" stroke="none" stroke-width="0" />
  <text x="500.0" y="18" font-family="Verdana" font-size="16" style="text-anchor: middle;">Altimetria — Ruta del Castildetierra - Monumento del Pastor - Embalse El Ferial - Yugo</text>
  <line x1="70" y1="330" x2="970" y2="330" stroke="#333" stroke-width="1.5" />
  <line x1="70" y1="30" x2="70" y2="330" stroke="#333" stroke-width="1.5" />
  <line x1="70.0" y1="30" x2="70.0" y2="330" stroke="#e6e6e6" stroke-width="1" />
  <text x="70.0" y="348" font-family="Verdana" font-size="11" style="text-anchor: middle; fill: #444;">0.0</text>
  <line x1="144.81918696483498" y1="30" x2="144.81918696483498" y2="330" stroke="#e6e6e6" stroke-width="1" />
  <text x="144.81918696483498" y="348" font-family="Verdana" font-size="11" style="text-anchor: middle; fill: #444;">5.0</text>
  <line x1="219.63837392966997" y1="30" x2="219.63837392966997" y2="330" stroke="#e6e6e6" stroke-width="1" />
  <text x="219.63837392966997" y="348" font-family="Verdana" font-size="11" style="text-anchor: middle; fill: #444;">10.0</text>
  <line x1="294.4575608945049" y1="30" x2="294.4575608945049" y2="330" stroke="#e6e6e6" stroke-width="1" />
  <text x="294.4575608945049" y="348" font-family="Verdana" font-size="11" style="text-anchor: middle; fill: #444;">15.0</text>
  <line x1="369.27674785933993" y1="30" x2="369.27674785933993" y2="330" stroke="#e6e6e6" stroke-width="1" />
  <text x="369.27674785933993" y="348" font-family="Verdana" font-size="11" style="text-anchor: middle; fill: #444;">20.0</text>
  <line x1="444.0959348241749" y1="30" x2="444.0959348241749" y2="330" stroke="#e6e6e6" stroke-width="1" />
  <text x="444.0959348241749" y="348" font-family="Verdana" font-size="11" style="text-anchor: middle; fill: #444;">25.0</text>
  <line x1="518.9151217890098" y1="30" x2="518.9151217890098" y2="330" stroke="#e6e6e6" stroke-width="1" />
  <text x="518.9151217890098" y="348" font-family="Verdana" font-size="11" style="text-anchor: middle; fill: #444;">30.0</text>
  <line x1="593.734308753845" y1="30" x2="593.734308753845" y2="330" stroke="#e6e6e6" stroke-width="1" />
  <text x="593.734308753845" y="348" font-family="Verdana" font-size="11" style="text-anchor: middle; fill: #444;">35.0</text>
  <line x1="668.5534957186799" y1="30" x2="668.5534957186799" y2="330" stroke="#e6e6e6" stroke-width="1" />
  <text x="668.5534957186799" y="348" font-family="Verdana" font-size="11" style="text-anchor: middle; fill: #444;">40.0</text>
  <line x1="743.3726826835149" y1="30" x2="743.3726826835149" y2="330" stroke="#e6e6e6" stroke-width="1" />
  <text x="743.3726826835149" y="348" font-family="Verdana" font-size="11" style="text-anchor: middle; fill: #444;">45.0</text>
  <line x1="818.1918696483498" y1="30" x2="818.1918696483498" y2="330" stroke="#e6e6e6" stroke-width="1" />
  <text x="818.1918696483498" y="348" font-family="Verdana" font-size="11" style="text-anchor: middle; fill: #444;">50.0</text>
  <line x1="893.0110566131848" y1="30" x2="893.0110566131848" y2="330" stroke="#e6e6e6" stroke-width="1" />
  <text x="893.0110566131848" y="348" font-family="Verdana" font-size="11" style="text-anchor: middle; fill: #444;">55.0</text>
  <line x1="967.8302435780198" y1="30" x2="967.8302435780198" y2="330" stroke="#e6e6e6" stroke-width="1" />
  <text x="967.8302435780198" y="348" font-family="Verdana" font-size="11" style="text-anchor: middle; fill: #444;">60.0</text>
  <text x="520.0" y="368" font-family="Verdana" font-size="12" style="text-anchor: middle;">Distancia (km)</text>
  <line x1="70" y1="358.30466830466827" x2="970" y2="358.30466830466827" stroke="#efefef" stroke-width="1" />
  <text x="62" y="362.30466830466827" font-family="Verdana" font-size="11" style="text-anchor: end; fill: #444;">250</text>
  <line x1="70" y1="284.5945945945946" x2="970" y2="284.5945945945946" stroke="#efefef" stroke-width="1" />
  <text x="62" y="288.5945945945946" font-family="Verdana" font-size="11" style="text-anchor: end; fill: #444;">300</text>
  <line x1="70" y1="210.88452088452087" x2="970" y2="210.88452088452087" stroke="#efefef" stroke-width="1" />
  <text x="62" y="214.88452088452087" font-family="Verdana" font-size="11" style="text-anchor: end; fill: #444;">350</text>
  <line x1="70" y1="137.17444717444715" x2="970" y2="137.17444717444715" stroke="#efefef" stroke-width="1" />
  <text x="62" y="141.17444717444715" font-family="Verdana" font-size="11" style="text-anchor: end; fill: #444;">400</text>
  <line x1="70" y1="63.46437346437341" x2="970" y2="63.46437346437341" stroke="#efefef" stroke-width="1" />
  <text x="62" y="67.46437346437341" font-family="Verdana" font-size="11" style="text-anchor: end; fill: #444;">450</text>
  <text x="16" y="180.0" font-family="Verdana" font-size="12" style="text-anchor: middle;" transform="rotate(-90,16,180.0)">Altitud (m)</text>
  <polyline points="70.00,330.00 96.67,327.05 114.02,269.41 139.96,316.00 150.67,277.22 162.21,248.62 171.86,270.44 208.48,301.25 223.41,294.91 242.52,296.09 262.52,286.66 273.18,270.44 289.83,275.31 310.09,281.50 319.54,262.92 334.31,222.38 363.43,219.29 386.17,191.57 398.19,182.58 403.47,182.43 424.87,186.86 443.06,177.57 469.41,156.04 479.93,150.00 491.74,122.43 518.33,171.38 562.58,194.23 575.73,213.83 591.86,239.93 625.65,148.67 631.43,104.30 677.64,107.69 708.69,114.03 729.80,127.89 753.91,145.58 759.88,143.51 762.47,170.49 772.73,173.59 782.50,155.31 816.50,156.19 838.89,227.10 868.34,194.52 882.46,196.58 904.76,30.00 935.64,137.76 941.36,168.13 955.13,254.82 961.78,302.29 966.02,326.76 970.00,330.00 970.00,330.00 70.00,330.00" fill="#cfe8ff" stroke="none" stroke-width="0" />
  <polyline points="96.67,327.05 114.02,269.41 139.96,316.00 150.67,277.22 162.21,248.62 171.86,270.44 208.48,301.25 223.41,294.91 242.52,296.09 262.52,286.66 273.18,270.44 289.83,275.31 310.09,281.50 319.54,262.92 334.31,222.38 363.43,219.29 386.17,191.57 398.19,182.58 403.47,182.43 424.87,186.86 443.06,177.57 469.41,156.04 479.93,150.00 491.74,122.43 518.33,171.38 562.58,194.23 575.73,213.83 591.86,239.93 625.65,148.67 631.43,104.30 677.64,107.69 708.69,114.03 729.80,127.89 753.91,145.58 759.88,143.51 762.47,170.49 772.73,173.59 782.50,155.31 816.50,156.19 838.89,227.10 868.34,194.52 882.46,196.58 904.76,30.00 935.64,137.76 941.36,168.13 955.13,254.82 961.78,302.29 966.02,326.76 970.00,330.00" fill="none" stroke="#0066ff" stroke-width="2.5" />
  <circle cx="96.67" cy="327.05" r="3" fill="#888888" stroke="none" stroke-width="0" />
  <circle cx="114.02" cy="269.41" r="3" fill="#888888" stroke="none" stroke-width="0" />
  <circle cx="139.96" cy="316.00" r="3" fill="#888888" stroke="none" stroke-width="0" />
  <circle cx="150.67" cy="277.22" r="3" fill="#888888" stroke="none" stroke-width="0" />
  <circle cx="162.21" cy="248.62" r="3" fill="#888888" stroke="none" stroke-width="0" />
  <circle cx="171.86" cy="270.44" r="3" fill="#888888" stroke="none" stroke-width="0" />
  <circle cx="208.48" cy="301.25" r="3" fill="#888888" stroke="none" stroke-width="0" />
  <circle cx="223.41" cy="294.91" r="3" fill="#888888" stroke="none" stroke-width="0" />
  <circle cx="242.52" cy="296.09" r="3" fill="#888888" stroke="none" stroke-width="0" />
  <circle cx="262.52" cy="286.66" r="3" fill="#888888" stroke="none" stroke-width="0" />
  <circle cx="273.18" cy="270.44" r="3" fill="#888888" stroke="none" stroke-width="0" />
  <circle cx="289.83" cy="275.31" r="3" fill="#888888" stroke="none" stroke-width="0" />
  <circle cx="310.09" cy="281.50" r="3" fill="#888888" stroke="none" stroke-width="0" />
  <circle cx="319.54" cy="262.92" r="3" fill="#888888" stroke="none" stroke-width="0" />
  <circle cx="334.31" cy="222.38" r="3" fill="#888888" stroke="none" stroke-width="0" />
  <circle cx="363.43" cy="219.29" r="3" fill="#888888" stroke="none" stroke-width="0" />
  <circle cx="386.17" cy="191.57" r="3" fill="#888888" stroke="none" stroke-width="0" />
  <circle cx="398.19" cy="182.58" r="3" fill="#888888" stroke="none" stroke-width="0" />
  <circle cx="403.47" cy="182.43" r="3" fill="#888888" stroke="none" stroke-width="0" />
  <circle cx="424.87" cy="186.86" r="3" fill="#888888" stroke="none" stroke-width="0" />
  <circle cx="443.06" cy="177.57" r="3" fill="#888888" stroke="none" stroke-width="0" />
  <circle cx="469.41" cy="156.04" r="3" fill="#888888" stroke="none" stroke-width="0" />
  <circle cx="479.93" cy="150.00" r="3" fill="#888888" stroke="none" stroke-width="0" />
  <circle cx="491.74" cy="122.43" r="3" fill="#888888" stroke="none" stroke-width="0" />
  <circle cx="518.33" cy="171.38" r="3" fill="#888888" stroke="none" stroke-width="0" />
  <circle cx="562.58" cy="194.23" r="3" fill="#888888" stroke="none" stroke-width="0" />
  <circle cx="575.73" cy="213.83" r="3" fill="#888888" stroke="none" stroke-width="0" />
  <circle cx="591.86" cy="239.93" r="3" fill="#888888" stroke="none" stroke-width="0" />
  <circle cx="625.65" cy="148.67" r="3" fill="#888888" stroke="none" stroke-width="0" />
  <circle cx="631.43" cy="104.30" r="3" fill="#888888" stroke="none" stroke-width="0" />
  <circle cx="677.64" cy="107.69" r="3" fill="#888888" stroke="none" stroke-width="0" />
  <circle cx="708.69" cy="114.03" r="3" fill="#888888" stroke="none" stroke-width="0" />
  <circle cx="729.80" cy="127.89" r="3" fill="#888888" stroke="none" stroke-width="0" />
  <circle cx="753.91" cy="145.58" r="3" fill="#888888" stroke="none" stroke-width="0" />
  <circle cx="759.88" cy="143.51" r="3" fill="#888888" stroke="none" stroke-width="0" />
  <circle cx="762.47" cy="170.49" r="3" fill="#888888" stroke="none" stroke-width="0" />
  <circle cx="772.73" cy="173.59" r="3" fill="#888888" stroke="none" stroke-width="0" />
  <circle cx="782.50" cy="155.31" r="3" fill="#888888" stroke="none" stroke-width="0" />
  <circle cx="816.50" cy="156.19" r="3" fill="#888888" stroke="none" stroke-width="0" />
  <circle cx="838.89" cy="227.10" r="3" fill="#888888" stroke="none" stroke-width="0" />
  <circle cx="868.34" cy="194.52" r="3" fill="#888888" stroke="none" stroke-width="0" />
  <circle cx="882.46" cy="196.58" r="3" fill="#888888" stroke="none" stroke-width="0" />
  <circle cx="904.76" cy="30.00" r="3" fill="#888888" stroke="none" stroke-width="0" />
  <circle cx="935.64" cy="137.76" r="3" fill="#888888" stroke="none" stroke-width="0" />
  <circle cx="941.36" cy="168.13" r="3" fill="#888888" stroke="none" stroke-width="0" />
  <circle cx="955.13" cy="254.82" r="3" fill="#888888" stroke="none" stroke-width="0" />
  <circle cx="961.78" cy="302.29" r="3" fill="#888888" stroke="none" stroke-width="0" />
  <circle cx="966.02" cy="326.76" r="3" fill="#888888" stroke="none" stroke-width="0" />
  <circle cx="970.00" cy="330.00" r="3" fill="#888888" stroke="none" stroke-width="0" />
  <circle cx="208.48" cy="301.25" r="5" fill="#ffffff" stroke="#0044cc" stroke-width="1.5" />
  <text x="214.5" y="295.3" font-family="Verdana" font-size="9" style="fill: #222;">Cabanas</text>
  <circle cx="223.41" cy="294.91" r="5" fill="#ffffff" stroke="#0044cc" stroke-width="1.5" />
  <text x="223.4" y="288.9" font-family="Verdana" font-size="9" style="fill: #222;" transform="rotate(-90,223.4,294.9)">Castildeterra</text>
  <circle cx="491.74" cy="122.43" r="5" fill="#ffffff" stroke="#0044cc" stroke-width="1.5" />
  <text x="497.7" y="116.4" font-family="Verdana" font-size="9" style="fill: #222;">Monumento al Pastor</text>
  <circle cx="753.91" cy="145.58" r="5" fill="#ffffff" stroke="#0044cc" stroke-width="1.5" />
  <text x="753.9" y="139.6" font-family="Verdana" font-size="9" style="fill: #222;" transform="rotate(-90,753.9,145.6)">Embalse El Ferial</text>
  <circle cx="904.76" cy="30.00" r="5" fill="#ffffff" stroke="#0044cc" stroke-width="1.5" />
  <text x="910.8" y="24.0" font-family="Verdana" font-size="9" style="fill: #222;">Escultura Virgen del Yugo</text>
  <text x="970" y="36" font-family="Verdana" font-size="12" style="text-anchor: end;">Longitud: 60.145 km</text>
  <text x="970" y="54" font-family="Verdana" font-size="12" style="text-anchor: end;">Altitud: 269–473 m</text>
</svg>